# xmcd
#
# Track frame offsets: 
#        150
#        8546
#        21306
#        31447
#        45107
#        55472
#        66337
#        81883
#        91635
#        105496
#        119305
#
# Disc length: 1837 seconds
#
# Revision: 0
# Processed by: cddbd v1.5.2PL0 Copyright (c) Steve Scherf et al.
# Submitted via: ExactAudioCopy v0.99pb4
#
DISCID=7c072b0b
DTITLE=Ben Hall - Ben Hall!
DYEAR=2011
DGENRE=Country
TTITLE0=Cannonball Rag
TTITLE1=Guitar Rag
TTITLE2=Alabama Jubilee
TTITLE3=Mimi and Me
TTITLE4=Windy and Warm
TTITLE5=Lover, Come Back To Me
TTITLE6=There'll Be Some Changes Made
TTITLE7=Sweet Temptation
TTITLE8=Oklahoma Hills
TTITLE9=King Of The Road
TTITLE10=Every Time You Leave
EXTD=
EXTT0=
EXTT1=
EXTT2=
EXTT3=
EXTT4=
EXTT5=
EXTT6=
EXTT7=
EXTT8=
EXTT9=
EXTT10=
PLAYORDER=
